<svg xmlns="http://www.w3.org/2000/svg" viewBox="0 0 64 64" fill="none">
  <!-- Background -->
  <rect width="64" height="64" rx="14" fill="#1c1917"/>

  <!-- Left wing — swept back, pointed falcon tip -->
  <path d="M30 30 C26 26 18 22 6 24 C10 28 18 30 29 33 Z" fill="white"/>

  <!-- Right wing — swept back, pointed falcon tip -->
  <path d="M34 30 C38 26 46 22 58 24 C54 28 46 30 35 33 Z" fill="white"/>

  <!-- Body -->
  <ellipse cx="32" cy="33" rx="5.5" ry="7.5" fill="white"/>

  <!-- Head -->
  <circle cx="32" cy="23.5" r="4.5" fill="white"/>

  <!-- Tail fan -->
  <path d="M26 40 C27 46 29 50 32 51 C35 50 37 46 38 40 C36 43 34 44 32 44 C30 44 28 43 26 40 Z" fill="white"/>
</svg>
